<svg xmlns="http://www.w3.org/2000/svg" viewBox="0 0 1200 630" width="1200" height="630" role="img" aria-label="Angular 20">
  <defs>
    <linearGradient id="sky20" x1="0" y1="0" x2="1" y2="1">
      <stop offset="0" stop-color="#c2dff2"/>
      <stop offset="0.6" stop-color="#dcecf8"/>
      <stop offset="1" stop-color="#f1f8fd"/>
    </linearGradient>
    <linearGradient id="shield20" x1="0" y1="0" x2="0" y2="1">
      <stop offset="0" stop-color="#7eb0df"/>
      <stop offset="1" stop-color="#4f7fc4"/>
    </linearGradient>
  </defs>
  <rect width="1200" height="630" fill="url(#sky20)"/>
  <g transform="translate(820 315)">
    <path d="M0 -190 L168 -130 L142 118 L0 200 L-142 118 L-168 -130 Z" fill="url(#shield20)"/>
    <path d="M0 -190 L168 -130 L142 118 L0 200 Z" fill="#3f6cab" opacity="0.6"/>
    <path d="M0 -120 L78 95 L48 95 L32 52 L-32 52 L-48 95 L-78 95 Z" fill="#fff"/>
    <path d="M-20 22 L20 22 L0 -28 Z" fill="#fff"/>
    <text x="0" y="160" font-family="-apple-system, BlinkMacSystemFont, 'Segoe UI', Inter, sans-serif" font-size="46" font-weight="700" fill="#fff" text-anchor="middle">v20</text>
  </g>
  <g font-family="-apple-system, BlinkMacSystemFont, 'Segoe UI', Inter, sans-serif" fill="#2b2a33">
    <text x="110" y="250" font-size="84" font-weight="700" letter-spacing="-3">Angular 20</text>
    <text x="110" y="335" font-size="40" font-weight="600" fill="#4f7fc4">Was ist neu gegenüber 19?</text>
    <text x="114" y="395" font-size="26" font-weight="500" fill="#7a7782">Signals stabil · Resource · Hydration</text>
  </g>
</svg>
