<svg xmlns="http://www.w3.org/2000/svg" viewBox="0 0 1200 630" width="1200" height="630" role="img" aria-label="Reaktivität: React, Angular und Vue">
  <defs>
    <linearGradient id="skyC" x1="0" y1="0" x2="1" y2="1">
      <stop offset="0" stop-color="#a8d4f5"/>
      <stop offset="0.6" stop-color="#cbe5f7"/>
      <stop offset="1" stop-color="#eef6fc"/>
    </linearGradient>
    <linearGradient id="shieldC" x1="0" y1="0" x2="0" y2="1">
      <stop offset="0" stop-color="#6aa0d8"/>
      <stop offset="1" stop-color="#3d6fc0"/>
    </linearGradient>
  </defs>
  <rect width="1200" height="630" fill="url(#skyC)"/>

  <!-- React atom, left -->
  <g transform="translate(250 235)" fill="none" stroke="#3a8fbf" stroke-width="6">
    <ellipse rx="95" ry="36"/>
    <ellipse rx="95" ry="36" transform="rotate(60)"/>
    <ellipse rx="95" ry="36" transform="rotate(120)"/>
    <circle r="15" fill="#3a8fbf" stroke="none"/>
  </g>

  <!-- Vue logo, center -->
  <g transform="translate(530 175) scale(0.55)">
    <path d="M204.8 0H256L128 220.8 0 0H97.92L128 51.2 157.44 0H204.8Z" fill="#41B883"/>
    <path d="M51.2 0H97.92L128 51.2 157.44 0H204.8L128 132.48 51.2 0Z" fill="#35495E"/>
  </g>

  <!-- Angular shield, right -->
  <g transform="translate(920 235)">
    <path d="M0 -120 L106 -82 L90 75 L0 126 L-90 75 L-106 -82 Z" fill="url(#shieldC)"/>
    <path d="M0 -120 L106 -82 L90 75 L0 126 Z" fill="#34619f" opacity="0.6"/>
    <path d="M0 -76 L49 60 L31 60 L20 33 L-20 33 L-31 60 L-49 60 Z" fill="#fff"/>
    <path d="M-13 14 L13 14 L0 -17 Z" fill="#fff"/>
  </g>

  <g font-family="-apple-system, BlinkMacSystemFont, 'Segoe UI', Inter, sans-serif" fill="#2b2a33" text-anchor="middle">
    <text x="600" y="430" font-size="60" font-weight="700" letter-spacing="-2">Reaktivität im Vergleich</text>
    <text x="600" y="490" font-size="30" font-weight="600" fill="#4a7fd4">React · Angular · Vue</text>
    <text x="600" y="538" font-size="24" font-weight="500" fill="#7a7782">Re-Render, Signals &amp; Proxy — bis Juni 2026</text>
  </g>
</svg>
