<svg xmlns="http://www.w3.org/2000/svg" viewBox="0 0 1000 420" width="1000" height="420" role="img" aria-label="Zeitleiste der Reaktivität: React und Angular">
  <rect width="1000" height="420" rx="18" fill="#eef6fc"/>
  <text x="500" y="42" text-anchor="middle" font-family="-apple-system, sans-serif" font-size="22" font-weight="700" fill="#2b2a33">Reaktivität im Zeitverlauf</text>

  <!-- Angular track (top) -->
  <text x="40" y="100" font-family="-apple-system, sans-serif" font-size="17" font-weight="700" fill="#3d6fc0">Angular</text>
  <line x1="40" y1="130" x2="960" y2="130" stroke="#bcd6ee" stroke-width="3"/>
  <g font-family="-apple-system, sans-serif" fill="#2b2a33">
    <g text-anchor="middle">
      <circle cx="110" cy="130" r="7" fill="#3d6fc0"/>
      <text x="110" y="112" font-size="13" font-weight="700">2010</text>
      <text x="110" y="158" font-size="12.5" fill="#5a6270">AngularJS</text>
      <text x="110" y="175" font-size="12.5" fill="#5a6270">$digest</text>

      <circle cx="320" cy="130" r="7" fill="#3d6fc0"/>
      <text x="320" y="112" font-size="13" font-weight="700">2016</text>
      <text x="320" y="158" font-size="12.5" fill="#5a6270">zone.js + RxJS</text>
      <text x="320" y="175" font-size="12.5" fill="#5a6270">Tree-Check</text>

      <circle cx="620" cy="130" r="7" fill="#3d6fc0"/>
      <text x="620" y="112" font-size="13" font-weight="700">2023 · v16/17</text>
      <text x="620" y="158" font-size="12.5" fill="#5a6270">Signals</text>
      <text x="620" y="175" font-size="12.5" fill="#5a6270">(stabil v17)</text>

      <circle cx="890" cy="130" r="7" fill="#3d6fc0"/>
      <text x="890" y="112" font-size="13" font-weight="700">2025 · v21</text>
      <text x="890" y="158" font-size="12.5" fill="#5a6270">zoneless</text>
      <text x="890" y="175" font-size="12.5" fill="#5a6270">Default</text>
    </g>
  </g>

  <!-- React track (bottom) -->
  <text x="40" y="260" font-family="-apple-system, sans-serif" font-size="17" font-weight="700" fill="#3a8fbf">React</text>
  <line x1="40" y1="290" x2="960" y2="290" stroke="#bcd6ee" stroke-width="3"/>
  <g font-family="-apple-system, sans-serif" fill="#2b2a33">
    <g text-anchor="middle">
      <circle cx="150" cy="290" r="7" fill="#3a8fbf"/>
      <text x="150" y="272" font-size="13" font-weight="700">2013</text>
      <text x="150" y="318" font-size="12.5" fill="#5a6270">setState</text>
      <text x="150" y="335" font-size="12.5" fill="#5a6270">+ Virtual DOM</text>

      <circle cx="400" cy="290" r="7" fill="#3a8fbf"/>
      <text x="400" y="272" font-size="13" font-weight="700">2019 · 16.8</text>
      <text x="400" y="318" font-size="12.5" fill="#5a6270">Hooks</text>
      <text x="400" y="335" font-size="12.5" fill="#5a6270">useState/Memo</text>

      <circle cx="650" cy="290" r="7" fill="#3a8fbf"/>
      <text x="650" y="272" font-size="13" font-weight="700">2022 · v18</text>
      <text x="650" y="318" font-size="12.5" fill="#5a6270">Concurrent</text>
      <text x="650" y="335" font-size="12.5" fill="#5a6270">useTransition</text>

      <circle cx="880" cy="290" r="7" fill="#3a8fbf"/>
      <text x="880" y="272" font-size="13" font-weight="700">2024/25 · v19</text>
      <text x="880" y="318" font-size="12.5" fill="#5a6270">React Compiler</text>
      <text x="880" y="335" font-size="12.5" fill="#5a6270">auto-memo</text>
    </g>
  </g>

  <text x="500" y="392" text-anchor="middle" font-family="-apple-system, sans-serif" font-size="14" font-style="italic" fill="#7a7782">Angular geht zu Signals · React bleibt beim Re-Render und optimiert per Compiler</text>
</svg>
